<svg xmlns="http://www.w3.org/2000/svg" version="1.1" xmlns:xlink="http://www.w3.org/1999/xlink" xmlns:svgjs="http://svgjs.dev/svgjs" width="1500" height="1500" viewBox="0 0 1500 1500"><rect width="1500" height="1500" fill="#ffffff"></rect><g transform="matrix(0.6666666666666666,0,0,0.6666666666666666,249.39393939393938,627.7653350470068)"><svg viewBox="0 0 396 97" data-background-color="#ffffff" preserveAspectRatio="xMidYMid meet" height="367" width="1500" xmlns="http://www.w3.org/2000/svg" xmlns:xlink="http://www.w3.org/1999/xlink"><g id="tight-bounds" transform="matrix(1,0,0,1,0.2400000000000091,-0.039117845611741586)"><svg viewBox="0 0 395.52 97.07823569122347" height="97.07823569122347" width="395.52"><g><svg viewBox="0 0 558.264447097784 137.022976267671" height="97.07823569122347" width="395.52"><g transform="matrix(1,0,0,1,162.744447097784,14.034390016888018)"><svg viewBox="0 0 395.52 108.95419623389496" height="108.95419623389496" width="395.52"><g id="textblocktransform"><svg viewBox="0 0 395.52 108.95419623389496" height="108.95419623389496" width="395.52" id="textblock"><g><svg viewBox="0 0 395.52 108.95419623389496" height="108.95419623389496" width="395.52"><g transform="matrix(1,0,0,1,0,0)"><svg width="395.52" viewBox="0.45 -36.45999999577501 134.52333333333002 37.05999999577501" height="108.95419623389496" data-palette-color="#123026"><path d="M17.55 0.5L15.2 0.5Q15.2 0.5 14.68-0.93 14.15-2.35 13.33-4.67 12.5-7 11.48-9.78 10.45-12.55 9.43-15.33 8.4-18.1 7.58-20.4 6.75-22.7 6.23-24.1 5.7-25.5 5.7-25.5L5.7-25.5Q4.9-27.55 4.1-28.45 3.3-29.35 1.7-29.65L1.7-29.65Q1-29.8 0.73-29.9 0.45-30 0.45-30.8L0.45-30.8Q0.45-31.65 1.05-31.73 1.65-31.8 2.45-31.8L2.45-31.8Q5.8-31.75 7.65-30.58 9.5-29.4 10.6-26.55L10.6-26.55 17.85-7.05 18-7.05 24.9-27.1Q25.45-28.7 24.95-29.13 24.45-29.55 22.7-29.55L22.7-29.55Q22.2-29.55 21.85-29.65 21.5-29.75 21.45-30.6L21.45-30.6Q21.45-31 21.65-31.35 21.85-31.7 22.3-31.7L22.3-31.7Q23.9-31.65 25.08-31.6 26.25-31.55 27.75-31.55L27.75-31.55Q28.75-31.55 29.4-31.58 30.05-31.6 30.73-31.63 31.4-31.65 32.45-31.7L32.45-31.7Q32.95-31.7 33.15-31.35 33.35-31 33.35-30.6L33.35-30.6Q33.3-29.75 32.98-29.65 32.65-29.55 32.1-29.55L32.1-29.55Q30.2-29.55 29.1-28.85 28-28.15 27.2-26.15L27.2-26.15Q27.2-26.2 26.68-24.78 26.15-23.35 25.3-20.98 24.45-18.6 23.43-15.75 22.4-12.9 21.35-10.05 20.3-7.2 19.45-4.8 18.6-2.4 18.07-0.95 17.55 0.5 17.55 0.5L17.55 0.5ZM41.2 0.6L41.2 0.6Q37.35 0.6 34.72-1.05 32.1-2.7 30.8-5.45 29.5-8.2 29.5-11.45L29.5-11.45Q29.5-13.65 30.27-15.73 31.05-17.8 32.5-19.53 33.95-21.25 36-22.25 38.05-23.25 40.65-23.25L40.65-23.25Q45.25-23.25 47.57-20.88 49.9-18.5 50.25-14.85L50.25-14.85Q50.25-13.1 49.27-12.55 48.3-12 46.75-12L46.75-12 34.6-12Q34.6-9.1 35.4-6.83 36.2-4.55 37.92-3.23 39.65-1.9 42.5-1.9L42.5-1.9Q44.6-1.9 46.1-2.8 47.6-3.7 49-5.95L49-5.95Q49.4-6.45 50.1-6L50.1-6Q50.5-5.8 50.6-5.38 50.7-4.95 50.5-4.65L50.5-4.65Q48.95-2.2 46.6-0.8 44.25 0.6 41.2 0.6ZM34.6-13.9L34.6-13.9 42.75-13.9Q43.95-13.9 44.67-14.38 45.4-14.85 45.45-16L45.45-16Q45.45-18.15 44.27-19.83 43.1-21.5 40.65-21.5L40.65-21.5Q38.15-21.5 36.47-19.5 34.8-17.5 34.6-13.9ZM53.6 0.15L53.6 0.15Q53.25 0.15 53.02-0.18 52.8-0.5 52.8-0.85L52.8-0.85Q52.85-1.6 53.17-1.68 53.5-1.75 53.95-1.75L53.95-1.75Q55.35-1.75 55.87-2.23 56.4-2.7 56.47-3.5 56.55-4.3 56.55-5.15L56.55-5.15 56.55-29.55Q56.55-30.45 56.47-31.23 56.4-32 55.9-32.48 55.4-32.95 54-32.95L54-32.95Q53.55-32.95 53.17-33.08 52.8-33.2 52.8-33.95L52.8-33.95Q52.8-34.7 53.6-34.85L53.6-34.85Q55.9-35.2 57.12-35.55 58.35-35.9 59-36.15 59.65-36.4 60.15-36.45L60.15-36.45Q60.55-36.5 60.82-36.3 61.1-36.1 61.1-35.5L61.1-35.5 61.1-5.15Q61.1-4.3 61.17-3.5 61.25-2.7 61.77-2.23 62.3-1.75 63.7-1.75L63.7-1.75Q64.15-1.75 64.47-1.68 64.8-1.6 64.84-0.85L64.84-0.85Q64.84-0.5 64.65-0.18 64.45 0.15 64.05 0.15L64.05 0.15Q62.6 0.05 61.37 0.03 60.15 0 58.8 0L58.8 0Q57.45 0 56.25 0.03 55.05 0.05 53.6 0.15ZM74.34 0.6L74.34 0.6Q71.29 0.6 69.47-1.15 67.64-2.9 67.64-5.35L67.64-5.35Q67.64-7.9 68.97-9.35 70.29-10.8 72.47-11.5 74.64-12.2 77.22-12.45 79.79-12.7 82.24-12.85L82.24-12.85 82.24-16.8Q82.24-19.15 81.07-20.48 79.89-21.8 77.09-21.8L77.09-21.8Q75.69-21.8 74.47-20.9 73.24-20 73.24-18.3L73.24-18.3Q73.24-17.5 73.64-16.95 74.04-16.4 74.44-16.1 74.84-15.8 74.84-15.7L74.84-15.7Q74.84-15.5 74.27-14.98 73.69-14.45 72.69-14.45L72.69-14.45Q71.14-14.45 70.29-15.6 69.44-16.75 69.44-18.15L69.44-18.15Q69.44-20.05 70.62-21.15 71.79-22.25 73.64-22.75 75.49-23.25 77.39-23.25L77.39-23.25Q79.64-23.25 81.77-22.7 83.89-22.15 85.27-20.6 86.64-19.05 86.64-15.95L86.64-15.95 86.64-4.3Q86.69-3.8 86.89-3.1 87.09-2.4 87.67-1.88 88.24-1.35 89.24-1.35L89.24-1.35Q89.59-1.35 89.79-1.23 89.99-1.1 89.99-0.55L89.99-0.55Q89.99-0.1 89.49 0.15 88.99 0.4 88.34 0.5 87.69 0.6 87.24 0.6L87.24 0.6Q85.39 0.6 83.94-0.48 82.49-1.55 82.24-3.45L82.24-3.45Q81.14-1.45 78.97-0.43 76.79 0.6 74.34 0.6ZM75.94-2.1L75.94-2.1Q77.64-2.1 79.07-2.95 80.49-3.8 81.37-5.28 82.24-6.75 82.24-8.55L82.24-8.55 82.24-11.4Q77.09-11.05 74.89-9.75 72.69-8.45 72.69-5.5L72.69-5.5Q72.69-2.1 75.94-2.1ZM93.19 0.15L93.19 0.15Q92.84 0.15 92.62-0.18 92.39-0.5 92.39-0.85L92.39-0.85Q92.49-1.6 92.79-1.68 93.09-1.75 93.59-1.75L93.59-1.75Q94.99-1.75 95.49-2.23 95.99-2.7 96.07-3.5 96.14-4.3 96.14-5.15L96.14-5.15 96.14-16.6Q96.14-17.5 96.07-18.28 95.99-19.05 95.49-19.53 94.99-20 93.59-20L93.59-20Q93.14-20 92.77-20.13 92.39-20.25 92.39-21L92.39-21Q92.39-21.75 93.19-21.9L93.19-21.9Q95.49-22.25 96.72-22.6 97.94-22.95 98.57-23.2 99.19-23.45 99.69-23.5L99.69-23.5Q100.09-23.55 100.37-23.35 100.64-23.15 100.64-22.55L100.64-22.55 100.64-19.45 100.79-19.45Q102.49-21.1 104.29-22.18 106.09-23.25 107.59-23.25L107.59-23.25Q109.34-23.25 110.27-21.95 111.19-20.65 111.19-19.2L111.19-19.2Q111.19-17.95 110.39-16.78 109.59-15.6 107.99-15.6L107.99-15.6Q107.19-15.6 106.72-15.93 106.24-16.25 106.19-16.4L106.19-16.4Q106.19-16.5 106.67-17 107.14-17.5 107.14-18.25L107.14-18.25Q107.14-19.15 106.67-19.7 106.19-20.25 105.39-20.25L105.39-20.25Q104.54-20.25 103.22-19.4 101.89-18.55 100.69-17.35L100.69-17.35 100.69-5.15Q100.69-4.3 100.77-3.5 100.84-2.7 101.37-2.23 101.89-1.75 103.29-1.75L103.29-1.75Q103.74-1.75 104.07-1.68 104.39-1.6 104.44-0.85L104.44-0.85Q104.44-0.5 104.24-0.18 104.04 0.15 103.64 0.15L103.64 0.15Q102.19 0.05 100.97 0.03 99.74 0 98.39 0L98.39 0Q97.04 0 95.84 0.03 94.64 0.05 93.19 0.15ZM125.54 0.6L125.54 0.6Q121.69 0.6 119.06-1.05 116.44-2.7 115.14-5.45 113.84-8.2 113.84-11.45L113.84-11.45Q113.84-13.65 114.61-15.73 115.39-17.8 116.84-19.53 118.29-21.25 120.34-22.25 122.39-23.25 124.99-23.25L124.99-23.25Q129.59-23.25 131.91-20.88 134.24-18.5 134.59-14.85L134.59-14.85Q134.59-13.1 133.61-12.55 132.64-12 131.09-12L131.09-12 118.94-12Q118.94-9.1 119.74-6.83 120.54-4.55 122.26-3.23 123.99-1.9 126.84-1.9L126.84-1.9Q128.94-1.9 130.44-2.8 131.94-3.7 133.34-5.95L133.34-5.95Q133.74-6.45 134.44-6L134.44-6Q134.84-5.8 134.94-5.38 135.04-4.95 134.84-4.65L134.84-4.65Q133.29-2.2 130.94-0.8 128.59 0.6 125.54 0.6ZM118.94-13.9L118.94-13.9 127.09-13.9Q128.29-13.9 129.01-14.38 129.74-14.85 129.79-16L129.79-16Q129.79-18.15 128.61-19.83 127.44-21.5 124.99-21.5L124.99-21.5Q122.49-21.5 120.81-19.5 119.14-17.5 118.94-13.9ZM123.49-26.45L123.49-26.45Q123.14-26.65 122.99-27.13 122.84-27.6 123.14-28.1L123.14-28.1 126.89-34.95Q127.29-35.65 128.04-35.98 128.79-36.3 129.64-35.85L129.64-35.85Q130.49-35.4 130.79-34.5 131.09-33.6 130.44-32.85L130.44-32.85 125.34-26.9Q124.84-26.35 124.34-26.3 123.84-26.25 123.49-26.45Z" opacity="1" transform="matrix(1,0,0,1,0,0)" fill="#000000" class="wordmark-text-0" data-fill-palette-color="primary" id="text-0"></path></svg></g></svg></g></svg></g></svg></g><g><svg viewBox="0 0 137.022976267671 137.022976267671" height="137.022976267671" width="137.022976267671"><g><svg xmlns="http://www.w3.org/2000/svg" xmlns:xlink="http://www.w3.org/1999/xlink" version="1.1" x="0" y="0" viewBox="19 19 474 474" style="enable-background:new 0 0 512 512;" xml:space="preserve" height="137.022976267671" width="137.022976267671" class="icon-icon-0" data-fill-palette-color="accent" id="icon-0"><g fill="#123026" data-fill-palette-color="accent"><g fill="#123026" data-fill-palette-color="accent"><g fill="#123026" data-fill-palette-color="accent"><path d="M486 103H26A7 7 0 0 1 19 96V26A7 7 0 0 1 26 19H486A7 7 0 0 1 493 26V96A7 7 0 0 1 486 103M33 89H479V33H33z" fill="#000000" data-fill-palette-color="accent"></path></g><g fill="#123026" data-fill-palette-color="accent"><path d="M96 493H26A7 7 0 0 1 19 486V96A7 7 0 0 1 26 89H96A7 7 0 0 1 103 96V486A7 7 0 0 1 96 493M33 479H89V103H33z" fill="#000000" data-fill-palette-color="accent"></path></g><g fill="#123026" data-fill-palette-color="accent"><path d="M486 493H416A7 7 0 0 1 409 486V296A7 7 0 0 1 416 289H486A7 7 0 0 1 493 296V486A7 7 0 0 1 486 493M423 479H479V303H423z" fill="#000000" data-fill-palette-color="accent"></path></g><g fill="#123026" data-fill-palette-color="accent"><path d="M486 203H226A7 7 0 0 1 219 196V96A7 7 0 0 1 226 89H486A7 7 0 0 1 493 96V196A7 7 0 0 1 486 203M233 189H479V103H233z" fill="#000000" data-fill-palette-color="accent"></path></g><g fill="#123026" data-fill-palette-color="accent"><path d="M486 303H226A7 7 0 0 1 219 296V196A7 7 0 0 1 226 189H486A7 7 0 0 1 493 196V296A7 7 0 0 1 486 303M233 289H479V203H233z" fill="#000000" data-fill-palette-color="accent"></path></g><g fill="#123026" data-fill-palette-color="accent"><path d="M396 268.385H316A7 7 0 0 1 309 261.385V230.615A7 7 0 0 1 316 223.615H396A7 7 0 0 1 403 230.615V261.385A7 7 0 0 1 396 268.385M323 254.385H389V237.615H323z" fill="#000000" data-fill-palette-color="accent"></path></g><g fill="#123026" data-fill-palette-color="accent"><path d="M396 168.385H316A7 7 0 0 1 309 161.385V130.615A7 7 0 0 1 316 123.615H396A7 7 0 0 1 403 130.615V161.385A7 7 0 0 1 396 168.385M323 154.385H389V137.615H323z" fill="#000000" data-fill-palette-color="accent"></path></g></g></g></svg></g></svg></g></svg></g><defs></defs></svg><rect width="395.52" height="97.07823569122347" fill="none" stroke="none" visibility="hidden"></rect></g></svg></g></svg>